<?xml version="1.0" encoding="UTF-8"?>
<svg xmlns="http://www.w3.org/2000/svg" xmlns:xlink="http://www.w3.org/1999/xlink" width="267.964" height="104.512" viewBox="0 0 267.964 104.512">
  <defs>
    <linearGradient id="linear-gradient" x1="0.5" y1="1" x2="0.5" gradientUnits="objectBoundingBox">
      <stop offset="0.268" stop-color="#00448e"/>
      <stop offset="1" stop-color="#0090d5"/>
    </linearGradient>
    <linearGradient id="linear-gradient-5" x1="0.5" y1="1" x2="0.5" gradientUnits="objectBoundingBox">
      <stop offset="0.268" stop-color="#2e6833"/>
      <stop offset="0.959" stop-color="#199649"/>
    </linearGradient>
  </defs>
  <g id="Group_53" data-name="Group 53" transform="translate(-737.919 -242.628)">
    <g id="Group_3" data-name="Group 3" transform="translate(737.919 242.628)">
      <g id="Group_1" data-name="Group 1" transform="translate(0 22.042)">
        <path id="Path_1" data-name="Path 1" d="M737.919,314.321l4.869-34.612a4.567,4.567,0,0,1,1.578-2.862,5.058,5.058,0,0,1,3.05-1.294h7.749l3.494,29.553,11.794-29.553h11.8L776.8,314.321h-7.42l4.393-31.238-12.26,31.238h-8.2l-3.59-31.238-4.39,31.238Z" transform="translate(-737.919 -274.544)" fill="url(#linear-gradient)"/>
        <path id="Path_2" data-name="Path 2" d="M816.236,275.712h6.294l8.612,38.657h-8.425l-1.466-7.981H806.193l-3.589,7.981h-8.432L812.051,278.3A4.469,4.469,0,0,1,816.236,275.712Zm.7,7.758-7.693,16.4H820.03Z" transform="translate(-754.788 -274.592)" fill="url(#linear-gradient)"/>
        <path id="Path_3" data-name="Path 3" d="M847.628,314.369l4.863-34.612a4.538,4.538,0,0,1,1.581-2.862,4.49,4.49,0,0,1,3.029-1.182h3.937L855.6,314.369Z" transform="translate(-770.819 -274.592)" fill="url(#linear-gradient)"/>
        <path id="Path_4" data-name="Path 4" d="M862.551,301.87h7.86c-.018,2.242.63,3.817,1.93,4.717a9.563,9.563,0,0,0,5.953,1.57,10.241,10.241,0,0,0,5.457-1.232,4.859,4.859,0,0,0,2.306-3.6q.5-3.6-9.293-5.846l-.211-.11-.868-.223q-5.559-1.24-7.281-2.586a5.515,5.515,0,0,1-2.636-3.6,9.921,9.921,0,0,1-.4-5.169,12.43,12.43,0,0,1,5.034-8.651q4.243-3.037,11.553-3.034,6.851,0,10.118,3.145,3.327,3.481,2.765,9.1h-4.494a3.232,3.232,0,0,1-3.376-2.36,4.573,4.573,0,0,0-1.3-1.911,10.58,10.58,0,0,0-10.308-.226,4.818,4.818,0,0,0-2.171,3.487q-.427,3.033,5.882,4.494a17.6,17.6,0,0,0,2.719.671c1.281.452,2.417.809,3.389,1.071s1.749.469,2.329.62c.982.449,1.975.9,2.958,1.343a7.973,7.973,0,0,1,3,3.487,10.14,10.14,0,0,1,.505,5.168,13.579,13.579,0,0,1-5.37,9.437q-4.482,3.148-11.905,3.151-7.642,0-11.005-3.259Q861.989,308.276,862.551,301.87Z" transform="translate(-775.272 -274.112)" fill="url(#linear-gradient)"/>
      </g>
      <g id="Group_2" data-name="Group 2" transform="translate(118.308 22.042)">
        <path id="Path_5" data-name="Path 5" d="M916.822,300.547l-1.939,13.822H906.9l4.863-34.612a4.591,4.591,0,0,1,1.582-2.862,4.51,4.51,0,0,1,3.033-1.182h13.15c4.119,0,7.044,1.056,8.77,3.148q2.7,3.153,1.835,9.33a15.307,15.307,0,0,1-4.323,9.21,13.214,13.214,0,0,1-9.215,3.148Zm.981-6.966h7.753a6.949,6.949,0,0,0,4.683-1.346,6.178,6.178,0,0,0,2.064-4.268,5.61,5.61,0,0,0-.767-4.159,5.456,5.456,0,0,0-3.966-1.348h-8.2Z" transform="translate(-906.902 -274.592)" fill="url(#linear-gradient-5)"/>
        <path id="Path_6" data-name="Path 6" d="M963.144,314.369,955.2,275.712h8.878l4.15,28.881,11.175-25.955a4.133,4.133,0,0,1,4.227-2.925h5.735l-18.58,38.657Z" transform="translate(-921.386 -274.592)" fill="url(#linear-gradient-5)"/>
        <path id="Path_7" data-name="Path 7" d="M1031.155,300.516a17.589,17.589,0,0,1-6.538,10.567,21.03,21.03,0,0,1-12.659,3.709q-8.767,0-12.627-5.284-3.911-5.052-2.511-14.943,1.424-10.115,6.851-15.172,5.581-5.282,14.675-5.279,7.42,0,11.281,3.711,3.656,3.593,3.3,10.108h-4.835a3.3,3.3,0,0,1-3.484-2.357,9.232,9.232,0,0,0-1.552-2.584,8.635,8.635,0,0,0-5.718-1.688,11.269,11.269,0,0,0-8.448,3.373q-3.181,3.366-4.091,9.888-.886,6.292,1.34,9.666c1.393,2.326,3.818,3.48,7.263,3.48a10.6,10.6,0,0,0,6.207-1.8,11.348,11.348,0,0,0,3.8-5.393Z" transform="translate(-933.757 -274.112)" fill="url(#linear-gradient-5)"/>
      </g>
      <path id="Path_8" data-name="Path 8" d="M975.129,242.628c29.261,8.662,49.353,26.466,49.353,47.035,0,29.075-40.1,52.641-89.569,52.641-38.3,0-70.961-14.13-83.763-34,11.566,22.424,48.566,38.835,92.453,38.835,53.15,0,96.237-24.051,96.237-53.739C1039.839,269.888,1012.785,249.918,975.129,242.628Z" transform="translate(-771.875 -242.628)" fill="url(#linear-gradient)"/>
    </g>
  </g>
</svg>
